<svg xmlns="http://www.w3.org/2000/svg" xmlns:xlink="http://www.w3.org/1999/xlink" viewBox="0 0 804.41 269.92"><defs><style>.a{stroke:#000;stroke-miterlimit:10;}.b{fill:#f7991f;}.c{fill:url(#a);}.d{fill:url(#b);}.e{fill:#f16522;}.f{fill:#fccb28;}.g{fill:#f9ec31;}.h{fill:url(#c);}.i{fill:url(#d);}.j{fill:url(#e);}.k{fill:url(#f);}.l{fill:url(#g);}.m{fill:url(#h);}.n{fill:url(#i);}.o{fill:url(#j);}</style><linearGradient id="a" x1="804.6" y1="1136.24" x2="840.51" y2="1136.24" gradientTransform="matrix(0.8, 0.6, 0.6, -0.8, -616.56, 532.38)" gradientUnits="userSpaceOnUse"><stop offset="0" stop-color="#f16522"/><stop offset="1" stop-color="#ee3b2c"/></linearGradient><linearGradient id="b" x1="833.01" y1="1174.05" x2="944.82" y2="1174.05" xlink:href="#a"/><linearGradient id="c" x1="912.3" y1="1207.65" x2="919.98" y2="1207.65" xlink:href="#a"/><linearGradient id="d" x1="400.28" y1="1232.84" x2="407.96" y2="1232.84" gradientTransform="matrix(0.4, 0.92, 0.92, -0.4, -488.32, 269.1)" xlink:href="#a"/><linearGradient id="e" x1="378.44" y1="1209.03" x2="386.11" y2="1209.03" gradientTransform="matrix(0.4, 0.92, 0.92, -0.4, -488.32, 269.1)" xlink:href="#a"/><linearGradient id="f" x1="1136.22" y1="988.7" x2="1143.9" y2="988.7" gradientTransform="matrix(0.96, 0.29, 0.29, -0.96, -608.56, 700.61)" xlink:href="#a"/><linearGradient id="g" x1="1118.32" y1="984.14" x2="1121.51" y2="984.14" gradientTransform="matrix(0.96, 0.29, 0.29, -0.96, -608.56, 700.61)" xlink:href="#a"/><linearGradient id="h" x1="1153.09" y1="979.18" x2="1156.28" y2="979.18" gradientTransform="matrix(0.96, 0.29, 0.29, -0.96, -608.56, 700.61)" xlink:href="#a"/><linearGradient id="i" x1="1150.57" y1="1003.42" x2="1153.75" y2="1003.42" gradientTransform="matrix(0.96, 0.29, 0.29, -0.96, -608.56, 700.61)" xlink:href="#a"/><linearGradient id="j" x1="1116.85" y1="955.73" x2="1120.03" y2="955.73" gradientTransform="matrix(0.96, 0.29, 0.29, -0.96, -608.56, 700.61)" xlink:href="#a"/></defs><title>sear</title><path d="M198.55,128.47h-65.7c-20.1,0-23.1.6-26.7,3.9-3.3,3.6-5.1,9.3-5.1,16.5,0,14.7,4.8,17.7,28.8,17.7h19.8c32.4.3,33.9.6,40.5,4.5,9.3,5.7,14.7,19.2,14.7,36.6,0,19.2-6.9,33.6-18.9,39.6-6.9,3.6-13.2,4.2-36.3,4.2H72.55v-23.1h70.2c14.7,0,21.6-.6,24.9-2.1q7.2-2.7,7.2-16.2c0-9.6-2.7-14.7-9-16.5-3-.6-7.5-.9-21.3-.9h-11.7c-31.2,0-38.1-1.2-46.5-7.8-9.6-7.8-15.3-21.6-15.3-36.3,0-16.8,7.2-30.9,19.2-37.2,7.8-4.2,18-6,34.8-6h73.5Z" transform="translate(-71.05 -52.35)"/><path d="M346.15,187.87h-87.6c-.3,13.8,3,23.1,10.2,30.9,6.9,7.2,13.8,9,35.4,9.6h42v23.1h-49.8c-25.2,0-36.9-3.3-48-13.2-13.5-12.3-20.7-32.4-20.7-57,0-30.6,10.8-53.1,31.8-65.7,11.4-7.2,24.9-10.2,44.7-10.2h42v23.1h-37.8c-31.2-.6-44.7,9.3-49.8,36.3h87.6Z" transform="translate(-71.05 -52.35)"/><path d="M475.15,162.37c.3-29.4-4.5-34.2-33-33.9h-68.7v-23.1h75c43.2-.6,56.7,12.3,55.8,53.7v92.4h-74.1c-27.9,0-35.7-1.5-45.9-8.7-10.5-7.8-16.2-20.1-16.2-35.1,0-17.1,6.9-31.5,18.3-38.7,7.5-4.8,18-6.6,36.9-6.6Zm-48.6,23.1c-20.7,0-28.5,6-28.5,21.6s7.8,21.3,28.5,21.3h48.6v-42.9Z" transform="translate(-71.05 -52.35)"/><path d="M630,111c9.93,4,20.84,3,31.76,4V104.29h-75c-43.21-.6-56.71,12.3-55.81,53.7v93h28.72l.38-89.71c-.3-29.4,4.5-34.2,33-33.9h68.71v-4.9C650.08,124.72,635.63,122.27,630,111Z" transform="translate(-71.05 -52.35)"/><line class="a" x1="556.45" y1="3.15" x2="569.95" y2="44.65"/><line class="a" x1="583.45" y1="0.15" x2="569.95" y2="44.65"/><circle cx="560.45" cy="41.15" r="2.5"/><circle cx="577.45" cy="41.15" r="2.5"/><path class="b" d="M652,118.35s3.48.62,4.58,0,1.39-2,3.94-1.48,3.49,2.09,5,0,3.57-3.49,5.69-3.52,8.71-3.1,8.71-3.1-.27,5.82,3.73,7.56,6.62-1.1,6.83-4.87-2.07-9.15-.94-12.49a10.14,10.14,0,0,1,8.51-6.32c3.63-.25,7.27,3.31,10.45,2.84s4.15-1.45,4.15-1.45-2,3.18-4.18,4.13-9.42,3.08-10.66,4.74-2.51,5.37,2.53,7,8.66.29,9.59-2,2.22-9.28,4.44-10.95a9.48,9.48,0,0,1,11.26-.23c4.7,3.12,5.57,4.76,7.58,6.86s3.07,2.16,3.07,2.16-5.41.16-6.56,1.88,2,8.81,5.86,9,7.7-2.75,7.58-6.89-5.4-7.81-7.41-10.41-4-5.69-3.74-8.56,1.88-5.35,5.31-5.5,8.7.56,11.53,2a25.71,25.71,0,0,0,7.76,2.33,9.56,9.56,0,0,1,1.87.29s-6.51.81-8.58,1.11-3.33,4.16-.66,5.53,9.26-1.85,11.4-3.08,7-10.4,16-10.45,9.44,2.72,11.6,3.46,2.72.31,2.72.31a131.69,131.69,0,0,0-13.23,3.55c-4.27,1.61-6.17,7.82-3.8,11.91s6.25,4.52,10.58,1.84,5.91-5.8,7.11-9.57,3.21-9.65,8.18-9.88,7.89-.21,9.84.16,6.12.89,8.16,1.3A19.53,19.53,0,0,0,822,88s-4.1,1.87-7,1.66-7.12-.86-10.15.57-4.71,5.34-3.83,7,2,2.74,5,.53,9.58-6.76,12.3-6.94,8.94-1.59,12.38,2.07,4.29,7.48,5,11,1.55,9,4.29,11.3,2.83,3.32,5.63,3.69a30.76,30.76,0,0,0,10-.47c3.63-.74,6.46-1.58,8.84-1.29a44.35,44.35,0,0,1,5.61,1.23l.46.7s-5.11-.24-8,1.81-3.41,4.59-4.64,6.25-4.09,2.36-6.46,2.56-7.87-1.65-7.87-1.65a21.91,21.91,0,0,0-6.63-1.38,17.73,17.73,0,0,0-11.84,4.84c-3.63,3.56-9.1,10.92-12.92,12.25a17.11,17.11,0,0,1-12.46-.29c-4.08-1.8-4.65-4.68-6.3-6.28s-4-3.3-5.62-1.22a15.2,15.2,0,0,0-2.33,5.63s-1.54,1.07-2.45.64-7.5-4.48-10.83-3.15-2.66,4.9-2.12,6.16a8.19,8.19,0,0,0,1.61,2.31l3.13,1.09s-10.75,2.21-14.56.37-7.11-7-8.12-8.62-3.88-4.72-5.66-5.31a12,12,0,0,0-8.94,1.09c-3.53,1.93-6,6.32-5.64,9.08a10.13,10.13,0,0,0,2.42,4.87l3.05,1.53,2.49.62,1.33.37s-9.13,1.68-14.67.52-14.81-6.59-17.89-9.24-4.83-9.24-5.09-10.05-3.77-5.87-6.54-6.94-12.61.58-12.61.58-6,.45-7.41-.47a24.89,24.89,0,0,1-3-2.52l-1.32-2.7-1.52-2.6a2.36,2.36,0,0,0-1.76,0,13.53,13.53,0,0,0-2.85,1.68l-2.88,1.55-2.21-.66L660,120.49l-1.43-1.06-1.2.95-1.3.26-1.68-.39S651.63,118.69,652,118.35Z" transform="translate(-71.05 -52.35)"/><path class="c" d="M705.84,113.26a10.92,10.92,0,0,0,8.25-4.88c3-4.7,8.8-3.2,11.31-2.1s-3.4,2.86,1.33,8.93,12.2,7.78,14.64,2.42,1.81-6.32,1.81-6.32,1,7.68-7.33,6.1-6.74-7.64-4.09-9a9.17,9.17,0,0,1,4.54-1.15,52.29,52.29,0,0,1-8.1-7.89c-3.44-4.36-11.16-2.87-13.81-.9s-2,5.27-3.56,8.73a9.85,9.85,0,0,1-4,4.7l-3.5.22-2.64.09Z" transform="translate(-71.05 -52.35)"/><path class="d" d="M773.75,105.84s7.76,9.61,14.38,1.72,11-5.14,14-2.92,7.74-6.28,13.29-8.56,8.63-2.29,14,13,13.3,13.21,13.3,13.21.63,2.26-5.75,1.87-9.73-1.08-16.43,7.25-15.4,14.17-21.2,8.84-9.54-11.7-14.34-8.35-7,4.55-13.9,3.5-2.93,6-8,9.41-11-4.36-11-4.36,2.84,7,9.11,8.61,14.66-.56,14.66-.56-8-1.9-5.44-6.68,7.61-1.26,11.65.21,3.71-.83,4.6-3.76,3-5.73,8.57,1.25,10.66,6.38,16.82,3.28,11.63-10.82,15.36-13.42,10.87-2.53,16.11-1.28,10.8,3.08,13.17.23,3.39-5.79,5.8-7.39,8.76-2.53,8.76-2.53-8.13-2.19-11.45-.82-15.32,2.8-17.57.24-5.18-9.72-7.29-17.94-8.87-10.18-13.48-9.5-6.21,1.79-10.6,4.93-10.82,4.38-10.81,1,3.12-6.2,9.38-6.68S822,88,822,88s-17.53-3.86-23.61-1.21-6,8.83-9.51,14.19-6.82,6.88-9.43,6.82-7.35-2.9-6.53-9.2,7.13-7.51,10.38-8.43S791,88.39,791,88.39s-11.57-5.73-17.86-3.49S766.94,88.75,763,93s-8.65,6.11-12.16,5.3-3.55-1.1-3.55-1.1.78,6.21,8.5,2.73,12.62-3.17,13.84,0A17.9,17.9,0,0,0,773.75,105.84Z" transform="translate(-71.05 -52.35)"/><path class="e" d="M874.81,124c2.18-6.74-8-4.59-10.7-3.41-4.09,1.76-4,7.23-7.88,8.72-4.71,1.82-8.5.69-12.7-1.22.06.09,0,.22-.12.18a18.73,18.73,0,0,0-13.27.47c-5,2-7.61,6.72-11.26,10.33-5.13,5-11.55,8.35-18.66,5.33-3.59-1.52-5.32-5.14-8-7.69-2.93-2.79-5.2.24-5.8,3.23a4.81,4.81,0,0,1-1.11,2.39c-1.37,1.6-4.5-.53-5.68-1.16-3-1.6-9.83-3.28-9.51,2.45.16,2.94,3,4.52,5.65,4.52.19,0,.22.26.09.35h.06a.43.43,0,0,1,.13.85c-7.41,1.41-15.6,2.5-21.08-3.82-4.33-5-5.45-11.4-13.87-10.19a9.49,9.49,0,0,0-8.49,10.26c.26,4.71,4.61,6.36,8.58,6.53a.46.46,0,0,1,.13.88c-8,2.45-15.75,1.12-23.23-2.45a39.52,39.52,0,0,1-10.79-7.08c-4.78-4.73-3.4-12.34-10-16-6.92-3.83-17.1,4.78-23-2-1.32-1.54-2.79-6.68-5.67-5.63-1.39.5-2.58,1.82-4,2.49-2.9,1.42-6.37-4-7.61-.78a.31.31,0,0,1-.39.17c-1.71-.86-3.33-1.86-5-2.76h0a.32.32,0,0,1-.24-.57c.8-.66,2.57-.12,3.49-.09,3.57.14,2.55-2.57,5.53-1.46,4.74,1.77,4.9-2,7.93-3.43a15,15,0,0,1,3.78-.65c2.84-.44,5.58-2,8.16-3.16a.68.68,0,0,1,.9.87c-2.7,7.23,9.09,9.8,8.39,1.26-.2-2.38-.78-4.73-1-7.11a10.08,10.08,0,0,1,2.76-8.31c1.95-2.06,4.89-2.76,7.61-2.77a13.14,13.14,0,0,1,4.71,1.23A22.92,22.92,0,0,1,706,95.9c3.37,1.78,7.92-.79,6.56-4.59a.13.13,0,0,1,.23-.1c1.23,2.4,1.19,6.19-1.71,6.89-3.5,4.17-10.48,2.4-13.23,7.46s5.62,6.53,8.42,5.65c6-1.84,3.72-7.67,6.45-11.41,2.47-3.37,7.44-4.54,11.41-3.41,6.68,1.92,7.82,10.79,15.34,10.78.37,0,.34.55,0,.62a7.07,7.07,0,0,1-4-.15c-1,0-2.07.09-3.1.21-2.43,1.45-3,3.23-1.81,5.32a7.21,7.21,0,0,0,5.27,4.24,6.16,6.16,0,0,0,5.68-2.36c2.41-2.63.81-6.25-1-8.6-1.57-2-3.78-3.57-5.56-5.4C731,97,729.56,88.55,735.79,87c2.36-1.47,5.28-.86,7.9-.16,1.85.49,10.82,4.22,15.49,3.77a5.45,5.45,0,0,0,.72-.57c.18-.18.45.11.32.31a.6.6,0,0,0-.08.08A2.32,2.32,0,0,0,762,87.59c0-.16.22-.24.28-.08.88,2.35-1.06,3.47-3.18,3.93-2,1.39-4.72,1.13-7.11,1.24l-.88.09q-4.07.14-.58,5.19c2.65.44,5.32-1,7.61-2.16,4-2,5.75-4.51,8.81-7.47a15.8,15.8,0,0,1,14.9-3.82c2.15.52,10.53,6.27,11.22,1.66a.13.13,0,0,1,.25,0c.28,2-.71,2.63-2.06,2.68-6.37,1.21-13.76,1.67-17,8.19a8.05,8.05,0,0,0,.09,6.59c1.56,4,5.23,3.35,8,2.32,3.78-1.4,6.23-4.91,7.93-8.36,1.8-3.66,2.83-9,6.85-11,3.83-1.92,7.87-1.53,11.92-.6,3.1-.18,13.64,4.22,14.53-.78a5.48,5.48,0,0,0-1-3.34c-.17-.29.22-.62.42-.33,1.56,2.26,1.67,3.9.9,5.11a2.09,2.09,0,0,1-.85.92c-3.19,2.53-11.35,2.35-14.36,2.41a7.65,7.65,0,0,0-7.52,6.43l3.65,1.49a13.48,13.48,0,0,0,3.31-2c1.48-1.09,2.83-2.36,4.3-3.47,3.81-2.86,9-3.1,13.48-2.37,12.14,2,8.28,19.22,15.9,26,8.14,7.29,21.05-3.58,30.23,2.53,2.49.71,4.29,2.4,2.78,5.35A0,0,0,0,1,874.81,124Zm-19.57-5.14c-4.06.75-9.35,1.48-13-1-3.88-2.68-5.54-6.83-6.73-11.26a81.56,81.56,0,0,0-3.06-10.32c-2.18-5.2-8.58-5.59-13.34-5-6.22.71-9.26,7.66-15.17,8.27-2.49.26-4-.49-3.88-3.15.13-3.42,3.15-6,6.1-7.06,1.92-.66,4.2-.38,6.17-.23a22.18,22.18,0,0,0,8.47-.84c-3.48.19-8.66-1.37-11.13-1.74,0,0,0,0,0,0l-1-.07c-.2,0-.32.08-.34.2s0,0,0,0a.56.56,0,0,1,0-.23c-4-.3-8.06-.54-11.51,2s-4.62,8.79-6.71,12.52-8.4,9-13.21,6.93c-5-2.14-5.54-7.87-3.31-12.26,2.84-5.59,10-6.31,15.82-6.85a19,19,0,0,1-3-1c-4-1.68-7-3.07-11.56-2.37-6.61,1-8.53,7.34-13.88,10.19-3.32,1.77-6.73,3.63-10.58,3.61-1.45,0-4.53-1.4-4.08-3.35,1-4.45,5.4-3.68,9.22-4-5.67-.53-12.64-5.89-18.34-4.54a.21.21,0,0,1-.14.17c-9,3.5-2.21,12.47,1.94,16.23,1.8,1.62,4.19,3.72,4.6,6.23a7.25,7.25,0,0,1-6.64,8.76c-4.2.49-7.17-3.7-7.93-7.25s2.58-4.27,5.44-4.14a6.62,6.62,0,0,1-1.21-1c-4.2-4.21-6-9.12-12.89-9-3.17.06-5.94,1.47-7.22,4.5-1,2.34-.82,4.62-2,6.91s-4.06,3.77-6.67,4.19c-3,.5-8.41-2.18-7.89-5.87.91-6.54,9.42-5.21,13.57-8.69a4,4,0,0,1-.68,0c-3.36-.38-6.06-2.57-9.37-3.29s-6.35.82-8.53,3.11-1.71,6.17-1.31,9.09c.58,4.32,2.44,12.31-5,11.39-4-.49-6.11-3.44-5.55-7.06a31.18,31.18,0,0,1-8.69,2.94c-2.67.42-3.62,1.41-5.31,3.41a3,3,0,0,1-2,.75,7.21,7.21,0,0,1-2.29-.48c-2.37-.69-2.06-.35-3.92.63-1.43.76-3.64-.25-5,0,.92.46,4,2.52,5.14.35a.33.33,0,0,1,.42-.19,8.41,8.41,0,0,1,2.88,1.85c2.79,2.51,5.38-.48,7.33-1.73a2.75,2.75,0,0,1,2.94-.15c2.92,2.28,3.43,7.25,7.58,8s9.13-.69,13.26-1c7.33-.6,10.72,4.47,12.84,10.82,3.13,9.4,14.83,14.68,24,16.31a27.15,27.15,0,0,0,6.68.2c.85-.06,6.12,0,2.81-.5a8.44,8.44,0,0,1-5.28-3.21c-3.73-4.52-.58-10.93,3.59-13.57A11.17,11.17,0,0,1,751,137.68c3.49,3.59,4.21,8,9.09,10.49,4,2,9.25,1.32,13.76.6-4.29-.33-6.79-7-2.47-9.65,3.6-2.18,7.84.67,11,2.18,3.75,1.8,2.79-7.07,6.66-7.1,3.24,0,5.25,3.1,7,5.38,6.82,8.74,16.77,4.33,23-2.16,3.89-4.08,6.51-8,12-10a15.12,15.12,0,0,1,11.54.19l-.39-.18s0,0,0,0a4.87,4.87,0,0,1,3,.86,13,13,0,0,0,9.5.63c3.37-1,4.3-5.2,6.49-7.53a12.15,12.15,0,0,1,5.26-2.74,9.66,9.66,0,0,1,3.07-.36C864.76,117.06,860.22,117.89,855.24,118.82Z" transform="translate(-71.05 -52.35)"/><path class="f" d="M661.2,118.77l3.18.44s4.13-4.82,6.16-2.77,5.55-1.6,5.55-1.6l2.22,5.47s7.07,4.43,11.11-1,4.22-11.57,4.43-13.32l.21-1.74s.26,7,3.34,9.83,8.48,5.48,13.14,1,6.76-4,8.55-5.63a6.45,6.45,0,0,1,3-1.85s-3.3,3-1.18,6.74,4.44,3.58,4.44,3.58,1.08,12.5,11.43,7.4,10.58-9.84,9.84-16.92a12.66,12.66,0,0,0-5.84-9.78s5.89,3.83,8,8.37,4.89,4.45,8,.24,9.25-5.11,9.25-5.11-5.94,1-3.51,5.83,8.29,2.08,8.29,2.08-14.5,6.65-10.89,9.87,10.7,2.51,15.22-2.85,11.88-4.23,13.69-1.53,3.87-5.57,7.1-5.88,6.67,9,10.81,6.39,6.08-14.8,13-12.37,9.18,11.16,9.18,11.16-11.75-9.54-13.54-1.62,3.43,10.45,3.43,10.45-4.86,6.18-11.79,4.85-7.84-8.55-9.93-5.74-16.27,9.41-17,5.61-1.88-6.3-10.91-.76-13.83-.48-13.83-.48-2.55,6,1.85,9.27l4.4,3.27s-9.69-.93-11.83-8-20-3.17-21.81,4.75-.78,9.5-.78,9.5-5.07-6.77-8.64-9.68-9.35-11.3-14.74-12.86a29.8,29.8,0,0,1-8.73-4s-8.72,6.59-12.8,5.46-7.25-5.66-7.25-5.66-4.25-.16-5.48-1.07-5.42,2.51-5.42,2.51Z" transform="translate(-71.05 -52.35)"/><path class="f" d="M781,129.2s8.88-.44,13,.06,5.42,6,9.1,7.62,8.39-2.09,8.39-2.09-6.16,2.25-6.83-1.45,5.8-4.64,5.8-4.64-8.25-9.33-12.12-8.16-10.77,5-10.77,5Z" transform="translate(-71.05 -52.35)"/><path class="f" d="M757.2,136.45s-.27-3.6,2.31-2.75,7.2-1.06,7.2-1.06-4.9,1.7-7.66-2.06a22.86,22.86,0,0,1-3.58-6.71,3.39,3.39,0,0,0-3.16,4.26C752.92,132.21,757.2,136.45,757.2,136.45Z" transform="translate(-71.05 -52.35)"/><path class="f" d="M755.79,107.9s1-6.51,5.58-7.8,6.49.77,6.49.77-3.4.25-4,4.5.82,5.52.82,5.52-8,.43-10.87.24S754.54,110.17,755.79,107.9Z" transform="translate(-71.05 -52.35)"/><path class="f" d="M746.84,107.86a14.66,14.66,0,0,0-6.55-6.15c-4.61-2.14-6.61-9-3.67-10.61s4.39-1,4.39-1-8,1.3-1.74,8.1,5.66,5.91,7.66,7.82,1.85,5.86,1.85,5.86Z" transform="translate(-71.05 -52.35)"/><path class="f" d="M703.8,123.46s6.75,7.34,6.75,12.24,2.26,7,5.44,9.38,5.32,2,5.32,2-7.86-7.55-3.27-8.83,8.26,6.14,8.26,6.14-5.5-9.85-9.85-14.36S703.8,123.46,703.8,123.46Z" transform="translate(-71.05 -52.35)"/><path class="g" d="M689.64,121.24s4.7-5.46,9-2a14.85,14.85,0,0,0,8.35,3.44s4.94,6,5.6,12,2.93,8.15,2.93,8.15-2.85-5.1,1.12-6.41,7.63,2.68,7.63,2.68a12.37,12.37,0,0,0-5.56-7.76c-4.72-2.87-6.23-8.89-13-10.72a36.9,36.9,0,0,1-10.31-4.25l-.57-3a11.34,11.34,0,0,1-3.81,5.7c-3,2.27-6.45,4.37-6.45,4.37Z" transform="translate(-71.05 -52.35)"/><path class="g" d="M703.7,121s5.2,2.79,9.52-2.74,5.52-6.56,5.52-6.56-2.08,3.36.51,5.92,3.92,1.63,3.92,1.63-8.81,6.68-12.45,6.11S703.7,121,703.7,121Z" transform="translate(-71.05 -52.35)"/><path class="g" d="M714.32,124s14.92,6.39,21.69,3.32,11.55-8.06,12.06-13.65-1.24-7.53-1.24-7.53,4.8,5.91,2.6,10a33.05,33.05,0,0,1-5.31,7.15s2.8-1.76,6.63,1.72a52.51,52.51,0,0,0,7.85,5.84l-5.08-1.22a7.09,7.09,0,0,0,1.19,4.73l1.63,2.7s-5.2-3.65-5.8-6.87-6-5.12-9.8-4.08-8.55,4.31-14.69,4.23-14.42-2.18-15.29-3.89.49-5,.49-5Z" transform="translate(-71.05 -52.35)"/><path class="g" d="M745.07,122.33s7.74-1.5,9.9-8.43,3.88-10.12,6-11.77a7.87,7.87,0,0,1,3.89-1.8s-5,1.22-5.21,5.3,1.92,5.47,1.92,5.47l2.34.89-6.51,1.56s-.5,3.26-5.62,6.7-8,3.63-8,3.63Z" transform="translate(-71.05 -52.35)"/><path class="g" d="M748,124.48s16,5.26,21.95.1,9.57-10.59,12.64-8.1,6.38,5.81,8.42,3.06,4.07-8.92,6.32-4.47,9.32,5,11.77,1.71,5.91-11.4,9.78-10.87,4.76,3.11,4.76,3.11-4.73-3.72-7.69.26-6.54,12-3.89,13.31,3.43.85,3.43.85-4.58,3-8.5,1.36-6.78-3.54-8.75-6.07-1.85-1-4.55,2.38-5.22,2.72-5.22,2.72,6.56-2.79,9.57.93,2.86,8.53,4.79,10a4.49,4.49,0,0,0,4,.64s-3.65,3.47-6-.22-4.38-10.51-7.61-9.92-4.06,3.17-7.71-.83S779,120.2,775,122.61s-8.23,6.47-14.3,6S748,124.48,748,124.48Z" transform="translate(-71.05 -52.35)"/><path class="b" d="M838.47,114.52c-2.66.44-6-1.46-6-1.46A13.63,13.63,0,0,1,845,109.15C849.74,110.08,842.49,113.85,838.47,114.52Z" transform="translate(-71.05 -52.35)"/><path class="g" d="M833,113.19a6.49,6.49,0,0,0,6.61.45c3.5-1.86,2.7-3.63-.51-3.43s-6.61,2.85-6.61,2.85Z" transform="translate(-71.05 -52.35)"/><path class="h" d="M839.84,114.28s4.09-1.54,5.63-3-.69-2.4-3.64-2.24a17.11,17.11,0,0,0-5,1s5.23-1.17,5.61.53S839.84,114.28,839.84,114.28Z" transform="translate(-71.05 -52.35)"/><path class="b" d="M801.63,153.58c-2.53-1-4.46-4.25-4.46-4.25A13.69,13.69,0,0,1,810,152.21C813.61,155.37,805.44,155,801.63,153.58Z" transform="translate(-71.05 -52.35)"/><path class="g" d="M797.54,149.7a6.52,6.52,0,0,0,5.51,3.69c4,.14,4.16-1.8,1.28-3.23s-7.16-.83-7.16-.83Z" transform="translate(-71.05 -52.35)"/><path class="i" d="M802.93,154.06s4.32.7,6.38.23.59-2.42-2-3.75a16.83,16.83,0,0,0-4.82-1.62s5.11,1.59,4.6,3.26S802.93,154.06,802.93,154.06Z" transform="translate(-71.05 -52.35)"/><path class="b" d="M771,142.94c-2.53-.95-4.46-4.24-4.46-4.24a13.67,13.67,0,0,1,12.83,2.87C783,144.73,774.85,144.37,771,142.94Z" transform="translate(-71.05 -52.35)"/><path class="g" d="M766.94,139.06a6.52,6.52,0,0,0,5.52,3.69c4,.14,4.15-1.79,1.27-3.22s-7.16-.83-7.16-.83Z" transform="translate(-71.05 -52.35)"/><path class="j" d="M772.33,143.42s4.32.71,6.38.23.59-2.42-2-3.75a16.83,16.83,0,0,0-4.82-1.62s5.11,1.6,4.6,3.26S772.33,143.42,772.33,143.42Z" transform="translate(-71.05 -52.35)"/><path class="b" d="M769.89,91.07c-2.36,1.32-6.12.65-6.12.65a13.58,13.58,0,0,1,10.47-7.91C779,83.1,773.44,89.09,769.89,91.07Z" transform="translate(-71.05 -52.35)"/><path class="g" d="M764.29,91.67a6.49,6.49,0,0,0,6.37-1.81c2.67-2.93,1.31-4.33-1.64-3.06s-5.25,4.92-5.25,4.92Z" transform="translate(-71.05 -52.35)"/><path class="k" d="M771.09,90.39s3.33-2.84,4.29-4.71-1.46-2-4.18-.88a16.88,16.88,0,0,0-4.34,2.62s4.52-2.86,5.46-1.39S771.09,90.39,771.09,90.39Z" transform="translate(-71.05 -52.35)"/><path class="b" d="M750,87a4.61,4.61,0,0,1-2.54.26A5.64,5.64,0,0,1,751.76,84C753.73,83.68,751.43,86.17,750,87Z" transform="translate(-71.05 -52.35)"/><path class="g" d="M747.63,87.24a2.69,2.69,0,0,0,2.65-.75c1.11-1.22.54-1.8-.68-1.27a6,6,0,0,0-2.18,2Z" transform="translate(-71.05 -52.35)"/><path class="l" d="M750.46,86.71a9.55,9.55,0,0,0,1.78-1.95c.4-.78-.61-.84-1.74-.37a7.14,7.14,0,0,0-1.8,1.09s1.88-1.19,2.27-.58S750.46,86.71,750.46,86.71Z" transform="translate(-71.05 -52.35)"/><path class="b" d="M781.86,101.89a4.52,4.52,0,0,1-2.53.27,5.62,5.62,0,0,1,4.34-3.28C785.64,98.58,783.34,101.07,781.86,101.89Z" transform="translate(-71.05 -52.35)"/><path class="g" d="M779.54,102.14a2.69,2.69,0,0,0,2.65-.75c1.1-1.22.54-1.8-.68-1.27a5.91,5.91,0,0,0-2.18,2Z" transform="translate(-71.05 -52.35)"/><path class="m" d="M782.37,101.61a9.7,9.7,0,0,0,1.78-2c.4-.78-.61-.84-1.74-.36a7.14,7.14,0,0,0-1.8,1.09s1.88-1.19,2.27-.58S782.37,101.61,782.37,101.61Z" transform="translate(-71.05 -52.35)"/><path class="b" d="M786.46,78a4.52,4.52,0,0,1-2.53.27,5.62,5.62,0,0,1,4.34-3.29C790.24,74.64,787.94,77.13,786.46,78Z" transform="translate(-71.05 -52.35)"/><path class="g" d="M784.14,78.2a2.69,2.69,0,0,0,2.65-.75c1.1-1.22.54-1.8-.69-1.27a5.94,5.94,0,0,0-2.17,2Z" transform="translate(-71.05 -52.35)"/><path class="n" d="M787,77.67a9.7,9.7,0,0,0,1.78-2c.4-.78-.61-.84-1.74-.36a6.61,6.61,0,0,0-1.8,1.09s1.88-1.19,2.26-.58S787,77.67,787,77.67Z" transform="translate(-71.05 -52.35)"/><path class="b" d="M740.31,113.77a4.58,4.58,0,0,1-2.53.26,5.64,5.64,0,0,1,4.34-3.28C744.09,110.45,741.79,112.94,740.31,113.77Z" transform="translate(-71.05 -52.35)"/><path class="g" d="M738,114a2.69,2.69,0,0,0,2.65-.75c1.1-1.21.54-1.8-.68-1.27a6,6,0,0,0-2.18,2Z" transform="translate(-71.05 -52.35)"/><path class="o" d="M740.82,113.48a9.85,9.85,0,0,0,1.78-2c.4-.78-.61-.84-1.74-.37a7.14,7.14,0,0,0-1.8,1.09s1.87-1.19,2.26-.58S740.82,113.48,740.82,113.48Z" transform="translate(-71.05 -52.35)"/><path d="M83.21,294.06c-.18-2.38-1.67-3.87-3.69-3.87a3.67,3.67,0,0,0-3.74,3.69c0,1.8,1.26,3.06,4.28,4.05,6,2,7.15,4.36,7.15,7.87,0,4.5-3,7.38-7.74,7.38a7.33,7.33,0,0,1-7.56-7.69v-.18h3.15c0,3.28,1.76,5,4.41,5,2.84,0,4.59-1.58,4.59-4.41,0-2.38-1.53-3.69-4.36-4.73-4.32-1.57-7.07-2.78-7.07-7a6.72,6.72,0,0,1,7-6.84,6.58,6.58,0,0,1,6.71,6.7Z" transform="translate(-71.05 -52.35)"/><path d="M91.22,285V279.3h3.15V285Zm0,27.63V288h3.15V312.6Z" transform="translate(-71.05 -52.35)"/><path d="M121.41,308.1h-.09c-1.75,3.24-5.53,5.08-9.49,5.08A12.79,12.79,0,0,1,99,300.41a13,13,0,0,1,12.87-13.05,11,11,0,0,1,9.49,5h.09V288h3.15v22c0,8.91-6.48,12.28-12,12.28-6.08,0-10.94-3.33-12.6-9h3.33a9.48,9.48,0,0,0,9.22,6.21c5.58,0,8.91-3.78,8.91-9Zm.18-7.79a9.74,9.74,0,1,0-9.76,10A10,10,0,0,0,121.59,300.31Z" transform="translate(-71.05 -52.35)"/><path d="M149,312.6V298.88c0-5.54-3.33-8.69-7.65-8.69-4.77,0-7.7,3.65-7.7,8.46v14H130.5V288h3.15v3.15h.09a8.86,8.86,0,0,1,7.56-3.78c6.8,0,10.85,4.68,10.85,11.52V312.6Z" transform="translate(-71.05 -52.35)"/><path d="M160,301.44a9.79,9.79,0,0,0,9.54,8.91,9.31,9.31,0,0,0,8.81-5.81h3.34a12.84,12.84,0,1,1-12.15-17.18,13.16,13.16,0,0,1,12.91,13.14c0,.31-.05.62-.05.94Zm19.21-2.84a9.69,9.69,0,0,0-19.21,0Z" transform="translate(-71.05 -52.35)"/><path d="M208.94,312.6v-4.32h-.1a11.39,11.39,0,0,1-9.58,4.9,12.91,12.91,0,1,1,0-25.82,11.64,11.64,0,0,1,9.58,4.86h.1V279.3h3.14v33.3Zm.17-12.29a10,10,0,0,0-9.89-10.12,10.08,10.08,0,1,0,9.89,10.12Z" transform="translate(-71.05 -52.35)"/><path d="M217.08,317.1l12.6-37.8h3.55L220.5,317.1Z" transform="translate(-71.05 -52.35)"/><path d="M239.72,301.44a9.78,9.78,0,0,0,9.53,8.91,9.31,9.31,0,0,0,8.82-5.81h3.33a12.84,12.84,0,1,1-12.15-17.18,13.17,13.17,0,0,1,12.92,13.14c0,.31-.05.62-.05.94Zm19.21-2.84a9.85,9.85,0,0,0-9.68-8.41,9.75,9.75,0,0,0-9.53,8.41Z" transform="translate(-71.05 -52.35)"/><path d="M285.43,312.6V298.88c0-5.54-3.33-8.69-7.65-8.69-4.77,0-7.69,3.65-7.69,8.46v14h-3.15V288h3.15v3.15h.09a8.84,8.84,0,0,1,7.56-3.78c6.79,0,10.84,4.68,10.84,11.52V312.6Z" transform="translate(-71.05 -52.35)"/><path d="M318.78,305.35c-2.52,5-6.53,7.83-12.24,7.83A12.89,12.89,0,0,1,293.31,300c0-6.74,5.94-12.68,13.23-12.68a12.94,12.94,0,0,1,12.24,8.05h-3.47a9.68,9.68,0,0,0-8.68-5.22,10.08,10.08,0,1,0,0,20.16,9.43,9.43,0,0,0,8.68-5Z" transform="translate(-71.05 -52.35)"/><path d="M323.5,312.6V288h3.15v3.55h.09c1.08-2.56,3-4,6.93-4.18v3.33h0c-4.55.45-7,3.42-7,7.38V312.6Z" transform="translate(-71.05 -52.35)"/><path d="M340.11,321.24l4.27-9.45L334.8,288h3.33L346,307.6,354.33,288h3.33l-14.27,33.25Z" transform="translate(-71.05 -52.35)"/><path d="M361.12,321.24V288h3.15v4.32h.09a11.4,11.4,0,0,1,9.59-4.95,12.91,12.91,0,1,1,0,25.82,11.48,11.48,0,0,1-9.59-4.9h-.09v13Zm12.78-31.05a10,10,0,0,0-9.81,10.12,9.9,9.9,0,0,0,9.86,10,10.08,10.08,0,1,0-.05-20.16Z" transform="translate(-71.05 -52.35)"/><path d="M394.74,312.6V290.82h-5.18V288h5.18V279.3h3.15V288h5.89v2.83h-5.89V312.6Z" transform="translate(-71.05 -52.35)"/><path d="M409.14,301.44a9.79,9.79,0,0,0,9.54,8.91,9.32,9.32,0,0,0,8.82-5.81h3.33a12.84,12.84,0,1,1-12.15-17.18,13.16,13.16,0,0,1,12.91,13.14c0,.31,0,.62,0,.94Zm19.21-2.84a9.69,9.69,0,0,0-19.21,0Z" transform="translate(-71.05 -52.35)"/><path d="M458.1,312.6v-4.32H458a11.41,11.41,0,0,1-9.59,4.9,12.91,12.91,0,1,1,0-25.82,11.66,11.66,0,0,1,9.59,4.86h.09V279.3h3.15v33.3Zm.18-12.29a10,10,0,0,0-9.9-10.12,10.08,10.08,0,1,0,9.9,10.12Z" transform="translate(-71.05 -52.35)"/><path d="M501.52,312.6v-4.32h-.09a11.32,11.32,0,0,1-9.58,4.9,12.91,12.91,0,1,1,0-25.82,11.08,11.08,0,0,1,9.58,4.95h.09V288h3.15V312.6Zm.18-12.29a10,10,0,0,0-9.9-10.12,10.08,10.08,0,1,0,9.9,10.12Z" transform="translate(-71.05 -52.35)"/><path d="M510.39,312.6V288h3.15v3.55h.09c1.08-2.56,3-4,6.93-4.18v3.33h0c-4.54.45-7,3.42-7,7.38V312.6Z" transform="translate(-71.05 -52.35)"/><path d="M548,305.35c-2.52,5-6.53,7.83-12.24,7.83A12.89,12.89,0,0,1,522.54,300c0-6.74,5.94-12.68,13.23-12.68A12.94,12.94,0,0,1,548,295.41h-3.47a9.68,9.68,0,0,0-8.68-5.22,10.08,10.08,0,1,0,0,20.16,9.43,9.43,0,0,0,8.68-5Z" transform="translate(-71.05 -52.35)"/><path d="M571.09,312.6V298.88c0-5.54-3.33-8.69-7.65-8.69-4.77,0-7.69,3.65-7.69,8.46v14H552.6V279.3h3.15v11.84h.09a8.84,8.84,0,0,1,7.56-3.78c6.79,0,10.84,4.68,10.84,11.52V312.6Z" transform="translate(-71.05 -52.35)"/><path d="M580.18,285V279.3h3.15V285Zm0,27.63V288h3.15V312.6Z" transform="translate(-71.05 -52.35)"/><path d="M597,312.6,586.57,288H590l8.68,20.69L607.45,288h3.38l-10.4,24.61Z" transform="translate(-71.05 -52.35)"/><path d="M616.14,301.44a9.78,9.78,0,0,0,9.53,8.91,9.31,9.31,0,0,0,8.82-5.81h3.33a12.84,12.84,0,1,1-12.15-17.18,13.17,13.17,0,0,1,12.92,13.14c0,.31-.05.62-.05.94Zm19.21-2.84a9.84,9.84,0,0,0-9.68-8.41,9.74,9.74,0,0,0-9.53,8.41Z" transform="translate(-71.05 -52.35)"/></svg>